<?xml version="1.0" standalone="no"?>
<!DOCTYPE svg PUBLIC "-//W3C//DTD SVG 20010904//EN"
 "http://www.w3.org/TR/2001/REC-SVG-20010904/DTD/svg10.dtd">
<svg version="1.0" xmlns="http://www.w3.org/2000/svg"
 width="700.000000pt" height="700.000000pt" viewBox="0 0 700.000000 700.000000"
 preserveAspectRatio="xMidYMid meet">
<metadata>
Created by potrace 1.14, written by Peter Selinger 2001-2017
</metadata>
<g transform="translate(0.000000,700.000000) scale(0.100000,-0.100000)"
fill="#000000" stroke="none">
<path d="M3248 6995 c-1 -2 -41 -6 -88 -10 -47 -4 -87 -8 -90 -10 -3 -2 -33
-7 -65 -10 -33 -4 -62 -9 -65 -10 -3 -2 -26 -6 -50 -10 -25 -4 -83 -16 -130
-27 -47 -11 -94 -21 -105 -24 -47 -9 -269 -77 -342 -104 -269 -98 -538 -233
-748 -373 -69 -47 -288 -210 -314 -235 -10 -9 -48 -44 -86 -77 -261 -230 -520
-548 -698 -855 -209 -362 -382 -852 -433 -1227 -3 -26 -8 -57 -10 -67 -25
-135 -25 -752 0 -893 2 -10 7 -45 11 -78 4 -32 9 -68 11 -80 2 -11 11 -56 19
-101 48 -252 151 -551 286 -830 197 -409 447 -740 814 -1079 137 -127 430
-336 615 -439 285 -160 664 -306 960 -370 164 -36 332 -62 467 -74 114 -9 478
-9 568 1 145 15 145 15 280 37 79 13 111 19 165 31 25 6 56 13 70 15 118 23
357 96 523 160 617 241 1167 684 1583 1274 46 66 84 122 84 125 0 3 16 29 35
59 93 145 233 442 294 623 58 171 120 408 136 518 3 23 7 50 9 60 2 11 8 58
14 105 7 47 14 105 18 130 9 66 12 532 4 625 -10 102 -20 203 -25 235 -2 14
-7 45 -10 70 -3 25 -13 79 -21 120 -141 705 -551 1428 -1069 1885 -151 133
-392 316 -490 371 -11 6 -51 30 -89 54 -392 240 -937 423 -1391 465 -39 4 -83
9 -100 12 -35 5 -541 13 -547 8z m507 -438 c11 -3 56 -8 100 -12 44 -4 82 -8
85 -10 3 -2 26 -6 50 -10 120 -18 266 -53 415 -101 899 -291 1624 -1009 1924
-1904 43 -127 96 -323 106 -395 4 -22 11 -58 15 -81 31 -139 34 -766 6 -959
-9 -60 -56 -267 -82 -357 -109 -388 -328 -808 -570 -1094 -76 -90 -141 -159
-301 -319 l-113 -112 5 -69 c3 -37 7 -79 10 -91 2 -13 0 -21 -6 -18 -5 4 -9
15 -9 25 0 30 -68 259 -97 325 -15 33 -41 81 -58 106 -57 81 -59 86 -33 112
13 13 45 41 73 63 59 46 134 124 186 194 51 68 61 77 111 99 76 33 140 107
154 176 13 61 8 84 -32 147 l-36 59 26 107 c21 90 24 124 21 217 -2 61 -6 126
-9 145 -8 62 -17 147 -21 210 -7 106 -134 345 -271 510 -94 113 -139 145 -328
235 -212 101 -274 115 -476 110 -123 -3 -181 -8 -250 -21 -14 -3 -38 -8 -55
-11 -61 -10 -192 -56 -258 -89 -88 -44 -155 -94 -249 -187 -122 -122 -317
-385 -319 -431 -3 -100 -17 -186 -44 -278 -65 -216 -63 -249 25 -407 54 -98
59 -121 34 -142 -33 -27 -65 -90 -68 -137 -8 -92 37 -165 129 -208 91 -43 106
-30 75 60 -11 33 -18 61 -16 64 3 2 18 -22 34 -54 47 -93 55 -106 91 -159 156
-226 464 -386 791 -411 41 -3 91 -7 110 -8 19 -2 46 -4 60 -6 l25 -2 -25 -7
c-75 -22 -486 39 -595 88 -80 36 -87 36 -110 7 -62 -78 -158 -304 -184 -434
-19 -95 -25 -135 -36 -237 -8 -67 -24 -157 -30 -163 -6 -7 -22 38 -30 84 -13
69 -96 403 -162 649 -35 132 -73 272 -83 310 -52 195 -136 480 -150 505 -9 17
-77 39 -310 104 -69 19 -138 39 -153 45 -20 8 -27 7 -27 -1 0 -11 47 -86 61
-98 26 -22 122 -186 183 -312 130 -267 190 -427 179 -479 -4 -21 -35 -57 -109
-126 -57 -53 -104 -104 -104 -114 0 -10 50 -66 111 -126 143 -139 152 -153
141 -195 l-9 -33 -7 38 c-6 31 -31 62 -141 173 -74 74 -135 141 -135 148 0 7
28 40 62 72 192 183 187 170 119 342 -97 246 -300 619 -388 713 -28 30 -42 82
-33 119 4 19 25 35 90 67 66 33 100 58 159 120 70 72 82 80 151 102 41 13 88
30 103 38 l28 14 -36 47 c-56 74 -77 119 -66 141 10 18 31 25 121 36 73 10 79
11 85 17 3 3 -10 56 -30 118 -42 129 -44 125 50 160 95 34 246 112 242 124 -2
6 -49 38 -104 71 -112 67 -167 106 -200 143 l-23 25 23 12 c13 7 37 16 53 20
35 10 34 10 59 20 157 63 200 82 255 113 81 44 170 103 170 111 0 4 -89 44
-197 90 -109 47 -202 88 -208 93 -6 6 61 79 184 199 107 104 192 191 190 193
-6 6 -100 24 -209 41 -14 2 -43 6 -65 10 -22 3 -53 7 -70 10 -16 2 -54 9 -84
14 -29 6 -55 11 -57 11 -20 0 12 65 136 283 87 150 139 250 135 255 -1 1 -71
-23 -156 -54 -286 -105 -343 -119 -353 -86 -31 102 -45 243 -47 474 -1 168 9
158 -104 95 -116 -65 -235 -155 -337 -256 -54 -53 -101 -97 -106 -99 -5 -1
-47 46 -93 105 -144 184 -293 352 -304 342 -7 -7 -14 -40 -20 -93 -17 -150
-82 -416 -114 -465 -11 -18 -25 -14 -196 56 -116 48 -204 76 -272 88 -44 7
-43 -5 7 -116 54 -120 91 -250 96 -331 3 -68 3 -68 -24 -69 -15 0 -34 -2 -42
-3 -8 -2 -62 -6 -120 -10 -58 -4 -123 -9 -145 -11 -22 -2 -65 -6 -95 -9 -30
-3 -86 -8 -125 -12 -38 -3 -72 -8 -74 -9 -6 -6 23 -41 116 -139 137 -144 233
-281 233 -331 0 -23 -48 -64 -242 -204 -95 -69 -173 -131 -172 -136 0 -11 4
-12 144 -50 52 -14 118 -40 147 -57 58 -35 138 -107 170 -153 l21 -30 -139
-143 c-76 -78 -139 -148 -139 -156 0 -21 8 -25 185 -86 146 -50 160 -57 163
-80 2 -14 -11 -81 -28 -150 -37 -152 -38 -170 -7 -171 59 -3 207 5 249 14 18
3 35 -42 42 -108 8 -70 17 -129 21 -133 6 -6 148 54 152 64 2 7 -11 36 -30 65
-76 121 -149 296 -170 409 -3 14 -12 55 -21 91 -8 36 -18 88 -22 115 -3 27 -8
52 -10 55 -2 3 -6 44 -9 90 -7 96 9 91 20 -6 6 -57 28 -187 38 -230 3 -11 11
-42 17 -70 12 -49 62 -201 79 -240 74 -168 130 -255 200 -306 22 -17 85 -52
139 -79 l97 -48 -3 -47 c-3 -36 -9 -49 -26 -56 -11 -5 -145 -51 -296 -102
l-274 -92 -24 -75 c-13 -41 -62 -208 -108 -370 -107 -372 -143 -488 -152 -494
-4 -2 -5 15 -4 39 4 50 2 54 -84 151 -115 128 -263 322 -319 416 -141 237
-200 353 -270 533 -55 141 -116 339 -140 455 -57 272 -63 336 -60 675 2 165 6
314 9 330 3 17 8 50 10 75 21 181 109 502 203 734 312 777 998 1423 1798 1694
171 58 371 107 515 127 25 3 56 8 70 10 14 3 61 7 105 11 44 3 81 7 83 9 5 4
445 -3 467 -8z m-1614 -4325 c-5 -16 -16 -42 -24 -58 -52 -100 -217 -553 -232
-636 -7 -36 -5 -39 61 -100 37 -35 94 -88 127 -119 l61 -56 -22 -35 c-12 -20
-30 -42 -39 -49 -15 -13 -15 -12 0 18 10 18 17 40 17 51 0 11 -49 67 -114 131
-63 63 -116 123 -118 136 -4 19 52 205 80 270 5 11 38 92 72 180 81 205 158
362 131 267z"/>
</g>
</svg>
